# xmcd
#
# Track frame offsets: 
#        150
#        6513
#        13820
#        22764
#        32641
#        39861
#        49171
#        58275
#        67160
#        76867
#
# Disc length: 1136 seconds
#
# Revision: 0
# Processed by: cddbd v1.5.2PL0 Copyright (c) Steve Scherf et al.
# Submitted via: ExactAudioCopy v0.99pb1
#
DISCID=7a046e0a
DTITLE=Cai cai balão - Cantar e Brincar Vol 04
DYEAR=2008
DGENRE=Acid Jazz
TTITLE0=Cai cai balão
TTITLE1=Desencosta
TTITLE2=Quem é salvo
TTITLE3=Ciranda cirandinha
TTITLE4=Vai abóbora
TTITLE5=Joaninha
TTITLE6=Sansão era um homem grandão
TTITLE7=A bandinha
TTITLE8=Engenho novo
TTITLE9=Os meses
EXTD=
EXTT0=
EXTT1=
EXTT2=
EXTT3=
EXTT4=
EXTT5=
EXTT6=
EXTT7=
EXTT8=
EXTT9=
PLAYORDER=
